<svg id="Layer_1" data-name="Layer 1" xmlns="http://www.w3.org/2000/svg" viewBox="0 0 32 31.69"><defs><style>.cls-1{fill:#a7a9ac;}.cls-2{fill:#005496;}.cls-3{fill:#50b848;}</style></defs><path class="cls-1" d="M32,7.27v0h0C31.72,1.88,27.32-1.07,20.57.36L10,2.61c.51,0,1-.09,1.58-.09H22.71c4.59,0,7.6,1.94,8.57,4.94h0a.34.34,0,0,0,.52.19.39.39,0,0,0,.2-.38Z" transform="translate(0 0)"/><path class="cls-2" d="M4.35,15.42C1.18,9.77,2.6,5,7.32,3.21-.48,5.38-2.37,12,3.22,18.31l8.16,9.22a15.36,15.36,0,0,1-1.47-2.16l-5.56-10Z" transform="translate(0 0)"/><path class="cls-3" d="M28.49,18.88a1,1,0,0,0-.83.59h0l-3.31,5.9c-3.06,5.47-7.63,6.72-11.38,3.74,5.5,4.76,11.65,2.83,14.25-4.89l1.61-4.8h0c0-.12.16-.54-.34-.54Z" transform="translate(0 0)"/></svg>